# xmcd
#
# Track frame offsets:
#	150
#	13165
#	27055
#	38995
#	53300
#	63715
#	78207
#	91412
#	103462
#	115997
#	128360
#	140312
#	151787
#	162932
#	175732
#	186360
#	199202
#	214567
#	228875
#	245842
#
# Disc length: 3464 seconds
# Revision: 2
# Processed by: cddbd v1.5.2PL0 Copyright (c) Steve Scherf et al.
# Submitted via: dBpowerAMP V12.0
#
DISCID=060d8614
DTITLE=John Lee Hooker - Everybody's Blues [Specialty SPCD-7035-2]
DYEAR=1993
DGENRE=Blues
TTITLE0=Do My Baby Think of Me [Specialty 2125]
TTITLE1=Three Long Years Today [SP 2125]
TTITLE2=Strike Blues [SP 2127]
TTITLE3=Grinder Man [SP 2127]
TTITLE4=Walkin' This Highway [SP 2125]
TTITLE5=Four Women In My Life [SP 2127]
TTITLE6=I Need Lovin' [SP 2125]
TTITLE7=Find Me A Woman [SP 2127]
TTITLE8=I'm Mad [SP 528]
TTITLE9=I Been Done So Wrong [prev unissued]
TTITLE10=Boogie Rambler [prev unissued]
TTITLE11=I Keep The Blues [prev unissued]
TTITLE12=No More Doggin' (No More Foolin') [prev unissued]
TTITLE13=Everybody's Blues [SP 528]
TTITLE14=Anybody's Blues (I Love You Baby) [prev unissued]
TTITLE15=Locked Up In Jail (Prison Blues) [prev unissued]
TTITLE16=Nothin' But Trouble (Don't Take Your Wife's Family In) [SP 2149]
TTITLE17=I Need Love So Bad [SP 2149]
TTITLE18=Don't Trust Nobody [SP 2117]
TTITLE19=Odds Against Me aka Backbiters And Syndicators [prev unissued]
EXTD=
EXTT0=
EXTT1=
EXTT2=
EXTT3=
EXTT4=
EXTT5=
EXTT6=
EXTT7=
EXTT8=
EXTT9=
EXTT10=
EXTT11=
EXTT12=
EXTT13=
EXTT14=
EXTT15=
EXTT16=
EXTT17=
EXTT18=
EXTT19=
PLAYORDER=
